<svg id="图层_1" data-name="图层 1" xmlns="http://www.w3.org/2000/svg" viewBox="0 0 409.29 108.5"><defs><style>.cls-1{fill:#595757;}.cls-1,.cls-2{fill-rule:evenodd;}.cls-2{fill:#e50012;}</style></defs><title>未标题-1</title><path fill="#595757" class="cls-1" d="M198.48,31.87l-45.84-.09c-10.22,1.58-16.52,9-16.68,18.5a9.65,9.65,0,0,0,.11,1.31c1.07,8.84,8.14,16.57,17.38,16.79l29.15-.27C184,68.28,185,69,185,70.5c0,1-.62,1.68-2.28,2.13H138.11l.09,16.08h47.19c9.71-1.61,16.58-10,15.22-20.39-1.14-8.77-7.11-14.58-15.76-16l-30.32.09a2.24,2.24,0,0,1-2.43-2.14c-.09-1.5,1-2.1,2.34-2.29l44.22.09-.18-16.18Zm48.07.09,26.51,56.79-20,.09L249,79.27H223.91L220,88.92l-20.06-.17,26.68-56.87,20,.08Zm-10,17.41-6.29,15.25h12.48l-6.19-15.25ZM295.84,32l-19.75-.09L276,88.71h15.09V50.84l26.45,37.87H337L337.12,32H321.87l.33,37.78L295.84,32Zm63.32-.08H339.65L366.53,69.2V88.82H386L386,69.11,413.29,32l-19.78-.09L376.33,56Z" transform="translate(-4 -5.4)"/><path fill="#E50012" class="cls-2" d="M9.54,90.61,39,81.75A.92.92,0,0,0,38.88,80l-4.4-.76a.51.51,0,0,1-.17-.07.61.61,0,0,1-.19-.91l17-19.45c1.7-2.19,4.06-3.52,6.92-2.6L51.69,36.8,8,87.85a1.68,1.68,0,0,0-.23,2,1.71,1.71,0,0,0,1.82.76Zm45.14-84A1.7,1.7,0,0,1,56.26,5.4a1.66,1.66,0,0,1,1.61,1.2L80.09,70.17,59.75,66.3a5.91,5.91,0,0,0,1.84-6.93L53.07,34.09a.61.61,0,0,0-.88-.29.83.83,0,0,0-.15.11l-2.86,3.43a.91.91,0,0,1-1.12.19.89.89,0,0,1-.46-1l7.08-30Zm50.14,81.2a1.71,1.71,0,0,1,.25,2,1.68,1.68,0,0,1-1.85.8L37,78.11,50.54,62.5c.8,3.24,2.6,4.47,5.09,5l26.16,5.22a.61.61,0,0,0,.69-.61.4.4,0,0,0,0-.19l-1.54-4.19a.92.92,0,0,1,1.46-1l22.45,21.09Zm-.59-5.4c7.69-17.08,4.61-37.68-6.53-52.52a52,52,0,0,0-35-19.9c-1.45-.08-1.74,1.6-.4,2.12,30.07,8.13,47.82,34.06,39.92,69.59a1,1,0,0,0,.65,1.43c.62.19,1,0,1.37-.72ZM14.59,93c11,15.19,30.36,22.8,48.78,20.55A51.36,51.36,0,0,0,97.89,93.24c.64-.9.24-1.6-.31-1.81a1.14,1.14,0,0,0-1.4.57c-22.05,22-53.15,24.12-80-.45a1.07,1.07,0,0,0-1.47-.43c-.51.31-.75,1-.13,1.84ZM50.41,9.88a1.07,1.07,0,0,1,.38,2.1C16.17,23,1.94,51,10.2,81.24a1.13,1.13,0,0,1,0,1,1,1,0,0,1-1.91,0A51.2,51.2,0,0,1,7.8,42.21C14.94,25.08,31.79,11.92,50.41,9.88Z" transform="translate(-4 -5.4)"/></svg>